<svg width="175" height="171.99999999999997" xmlns="http://www.w3.org/2000/svg" preserveAspectRatio="xMidYMid meet">
<!-- #276955 -->
 <g>
  <title>background</title>
  <rect fill="none" id="canvas_background" height="174" width="177" y="-1" x="-1"/>
 </g>
 <g>
  <title>Layer 1</title>
  <g id="svg_1" fill="#000000" transform="translate(0,200) scale(0.10000000149011612,-0.10000000149011612) ">
   <path id="svg_2" d="m835.99987,1961.00013c-124,-89 -167,-105 -250,-96c-130,15 -146,9 -184,-72c-15,-32 -33,-69 -39,-81c-18,-37 -72,-80 -119,-94c-23,-7 -59,-29 -81,-50l-39,-37l7,-93c8,-109 3,-125 -66,-225c-27,-39 -49,-80 -49,-90c0,-10 19,-41 41,-68c74,-88 88,-136 74,-251c-6,-50 -4,-67 10,-92c19,-32 28,-38 113,-73c62,-26 103,-69 128,-135c24,-66 42,-92 67,-101c12,-4 72,-7 132,-8l110,0l58,-40c81,-56 117,-73 141,-67c28,7 92,52 141,99c7,7 15,9 19,6c3,-3 12,-1 19,5c8,7 17,9 20,5c4,-3 14,0 24,8c9,8 14,9 10,2c-9,-14 98,-28 142,-18c41,9 77,48 96,105c21,62 95,134 149,144c25,5 52,20 73,41l34,34l-3,108c-3,117 -1,123 77,232c38,53 34,108 -11,163c-20,23 -41,53 -47,65c-5,12 -13,20 -17,18c-4,-2 -5,6 -3,19c3,12 -2,29 -10,37c-12,12 -12,17 0,27c8,8 13,37 13,82c0,59 -4,73 -25,99c-15,17 -46,36 -74,46c-26,8 -63,26 -81,40c-36,26 -80,86 -80,108c0,28 -33,79 -64,98c-24,16 -40,18 -71,13c-115,-20 -182,-7 -242,46c-71,64 -99,72 -143,41zm233,-309c-3,-7 -9,-10 -12,-5c-3,4 -10,11 -15,15c-4,4 1,6 12,5c12,-1 18,-6 15,-15zm-223,-12c0,-5 -7,-10 -16,-10c-8,0 -12,5 -9,10c3,6 10,10 16,10c5,0 9,-4 9,-10zm95,-50c3,-5 2,-10 -4,-10c-5,0 -13,5 -16,10c-3,6 -2,10 4,10c5,0 13,-4 16,-10zm150,-39c3,-5 1,-12 -5,-16c-5,-3 -10,1 -10,9c0,18 6,21 15,7zm-295,-21c0,-5 -4,-10 -10,-10c-5,0 -10,5 -10,10c0,6 5,10 10,10c6,0 10,-4 10,-10zm197,-37c-2,-12 0,-20 4,-17c15,9 57,-44 57,-71c0,-14 -5,-25 -11,-25c-6,0 -7,-3 -4,-7c4,-3 3,-11 -2,-17c-5,-6 -11,-24 -14,-41c-3,-16 -10,-43 -17,-60c-21,-54 -50,-202 -36,-182c7,9 16,17 20,17c3,0 2,-8 -3,-17c-5,-10 -13,-27 -16,-38l-7,-20l-8,20c-6,16 -8,12 -12,-20c-3,-22 -11,-65 -19,-96c-11,-50 -11,-60 5,-94c23,-47 10,-63 -33,-41c-17,9 -35,25 -41,37c-13,22 -10,190 3,182c7,-4 11,62 7,118c0,15 6,34 15,43c16,16 61,174 52,183c-8,8 -57,-89 -50,-100c3,-5 1,-7 -4,-4c-12,7 -86,-126 -77,-136c4,-3 -3,-18 -15,-33c-13,-16 -18,-30 -12,-34c13,-8 2,-50 -13,-50c-7,0 -22,-12 -35,-26c-55,-63 -78,-1 -62,165c6,63 9,116 8,117c-1,2 -21,-31 -42,-74c-22,-42 -45,-82 -51,-88c-6,-7 -21,-41 -34,-76c-30,-83 -41,-95 -64,-69c-15,16 -17,35 -16,103c1,46 2,93 2,106c0,12 4,22 9,22c5,0 9,13 9,29c0,16 7,63 16,106c9,42 14,79 11,82c-12,11 29,43 55,43c26,0 28,-3 23,-27c-11,-59 -45,-255 -45,-264c0,-19 17,-8 29,18c10,21 9,28 -1,36c-10,7 -9,8 3,4c17,-6 54,46 44,63c-3,5 3,13 13,19c10,5 27,26 38,47c34,65 66,94 102,91c17,-1 32,-5 32,-9c0,-5 -4,-8 -9,-8c-7,0 -20,-71 -38,-212c-3,-25 -1,-38 7,-38c7,0 9,8 5,20c-5,14 -2,18 7,15c14,-6 48,51 48,80c0,8 5,15 10,15c6,0 10,-5 10,-12c0,-6 2,-9 5,-6c12,12 -9,39 -26,35c-13,-3 -20,0 -21,11c-4,48 -3,72 4,72c4,0 8,-7 8,-15c0,-8 9,-19 20,-25c16,-9 20,-8 21,7c0,17 1,17 8,0c5,-15 15,-6 53,46c46,64 70,127 49,127c-6,0 -11,5 -11,10c0,6 8,5 21,-2c13,-9 19,-21 16,-35zm-452,7c3,-5 1,-10 -4,-10c-6,0 -11,5 -11,10c0,6 2,10 4,10c3,0 8,-4 11,-10zm156,-23c-8,-8 -11,-7 -11,4c0,20 13,34 18,19c3,-7 -1,-17 -7,-23zm159,1c0,-19 -2,-20 -10,-8c-13,19 -13,30 0,30c6,0 10,-10 10,-22zm340,12c0,-5 -4,-10 -10,-10c-5,0 -10,5 -10,10c0,6 5,10 10,10c6,0 10,-4 10,-10zm-290,-52c0,-39 -13,-63 -29,-54c-14,9 -14,41 -1,67c16,29 30,23 30,-13zm246,-20c-10,-72 -11,-79 -21,-112c-4,-16 -9,-36 -10,-45c-1,-9 -5,-24 -9,-34c-5,-10 -5,-21 -1,-25c4,-4 10,-2 12,4c13,36 67,106 89,116c56,26 63,-47 10,-111c-12,-13 -36,-42 -55,-64c-22,-24 -31,-41 -24,-45c6,-4 16,-34 22,-66c6,-33 13,-61 16,-64c12,-12 43,29 79,105c18,36 32,48 40,34c6,-10 -34,-102 -57,-132c-7,-8 -24,-23 -38,-32c-24,-16 -26,-16 -47,3c-12,12 -22,31 -22,43c-1,12 -6,34 -13,49c-17,38 -33,24 -50,-41c-16,-64 -41,-84 -58,-47c-8,16 -17,23 -28,19c-10,-3 -12,-2 -5,4c13,9 32,64 38,108c2,17 12,73 22,125c10,52 18,109 18,125c1,17 5,33 10,37c5,3 10,23 12,45c1,21 7,37 13,36c6,-2 11,2 11,7c0,6 12,10 26,10c26,0 27,-1 20,-52zm-325,-11c-10,-9 -11,-8 -5,6c3,10 9,15 12,12c3,-3 0,-11 -7,-18zm429,3c0,-5 -5,-10 -11,-10c-5,0 -7,5 -4,10c3,6 8,10 11,10c2,0 4,-4 4,-10zm-895,-90c-3,-5 -11,-10 -16,-10c-6,0 -7,5 -4,10c3,6 11,10 16,10c6,0 7,-4 4,-10zm75,-46c0,-8 -4,-12 -10,-9c-5,3 -10,10 -10,16c0,5 5,9 10,9c6,0 10,-7 10,-16zm40,-21c0,-10 -4,-25 -10,-33c-8,-12 -10,-12 -16,3c-7,20 1,47 16,47c5,0 10,-8 10,-17zm-50,-13c0,-5 -2,-10 -4,-10c-3,0 -8,5 -11,10c-3,6 -1,10 4,10c6,0 11,-4 11,-10zm866,-18c-17,-16 -18,-16 -5,5c7,12 15,20 18,17c3,-2 -3,-12 -13,-22zm-866,-32c0,-5 -4,-10 -10,-10c-5,0 -10,5 -10,10c0,6 5,10 10,10c6,0 10,-4 10,-10zm810,6c0,-3 -4,-8 -10,-11c-5,-3 -10,-1 -10,4c0,6 5,11 10,11c6,0 10,-2 10,-4zm-382,-46c-14,-22 -24,-19 -15,5c4,8 11,15 17,15c6,0 6,-7 -2,-20zm447,0c3,-5 1,-10 -4,-10c-6,0 -11,5 -11,10c0,6 2,10 4,10c3,0 8,-4 11,-10zm-855,-4c0,-3 -4,-8 -10,-11c-5,-3 -10,-1 -10,4c0,6 5,11 10,11c6,0 10,-2 10,-4zm200,-20c0,-3 -4,-8 -10,-11c-5,-3 -10,-1 -10,4c0,6 5,11 10,11c6,0 10,-2 10,-4zm-205,-26c3,-5 1,-10 -4,-10c-6,0 -11,5 -11,10c0,6 2,10 4,10c3,0 8,-4 11,-10zm-25,-45c0,-8 -2,-15 -4,-15c-2,0 -6,7 -10,15c-3,8 -1,15 4,15c6,0 10,-7 10,-15zm390,-75c0,-5 -2,-10 -4,-10c-3,0 -8,5 -11,10c-3,6 -1,10 4,10c6,0 11,-4 11,-10zm-48,-32c-9,-9 -12,-7 -12,12c0,19 3,21 12,12c9,-9 9,-15 0,-24zm-134,-13c-3,-3 -9,2 -12,12c-6,14 -5,15 5,6c7,-7 10,-15 7,-18zm167,5c3,-5 1,-10 -4,-10c-6,0 -11,5 -11,10c0,6 2,10 4,10c3,0 8,-4 11,-10zm-205,-10c0,-5 -5,-10 -11,-10c-5,0 -7,5 -4,10c3,6 8,10 11,10c2,0 4,-4 4,-10zm85,-10c3,-5 2,-10 -4,-10c-5,0 -13,5 -16,10c-3,6 -2,10 4,10c5,0 13,-4 16,-10zm69,-41c-3,-5 -10,-7 -15,-3c-5,3 -7,10 -3,15c3,5 10,7 15,3c5,-3 7,-10 3,-15zm-55,-15c3,-16 1,-17 -13,-5c-19,16 -21,34 -3,29c6,-3 14,-13 16,-24zm296,16c3,-5 1,-10 -4,-10c-6,0 -11,5 -11,10c0,6 2,10 4,10c3,0 8,-4 11,-10zm45,-21c0,-5 -4,-9 -10,-9c-5,0 -10,7 -10,16c0,8 5,12 10,9c6,-3 10,-10 10,-16zm-495,1c-3,-5 -10,-10 -16,-10c-5,0 -9,5 -9,10c0,6 7,10 16,10c8,0 12,-4 9,-10zm605,-10c0,-5 -5,-10 -11,-10c-5,0 -7,5 -4,10c3,6 8,10 11,10c2,0 4,-4 4,-10zm-540,-30c0,-5 -4,-10 -10,-10c-5,0 -10,5 -10,10c0,6 5,10 10,10c6,0 10,-4 10,-10zm246,-17c-10,-10 -19,5 -10,18c6,11 8,11 12,0c2,-7 1,-15 -2,-18zm244,13c0,-3 -4,-8 -10,-11c-5,-3 -10,-1 -10,4c0,6 5,11 10,11c6,0 10,-2 10,-4zm-500,-26c0,-5 -5,-10 -11,-10c-5,0 -7,5 -4,10c3,6 8,10 11,10c2,0 4,-4 4,-10zm260,-10c0,-5 -4,-10 -10,-10c-5,0 -10,5 -10,10c0,6 5,10 10,10c6,0 10,-4 10,-10zm154,-11c-3,-5 -10,-7 -15,-3c-5,3 -7,10 -3,15c3,5 10,7 15,3c5,-3 7,-10 3,-15zm-294,1c0,-5 -4,-10 -10,-10c-5,0 -10,5 -10,10c0,6 5,10 10,10c6,0 10,-4 10,-10zm88,-25c-3,-3 -9,2 -12,12c-6,14 -5,15 5,6c7,-7 10,-15 7,-18zm-138,7c0,-13 -12,-22 -22,-16c-10,6 -1,24 13,24c5,0 9,-4 9,-8zm94,-1c3,-5 0,-14 -7,-19c-10,-8 -13,-6 -14,9c-2,19 11,26 21,10zm-134,-21c0,-5 -4,-10 -10,-10c-5,0 -10,5 -10,10c0,6 5,10 10,10c6,0 10,-4 10,-10zm160,-60c-6,-11 -15,-20 -20,-20c-19,0 -21,22 -5,47c15,23 19,24 27,10c5,-11 5,-24 -2,-37zm170,40c0,-5 -4,-10 -10,-10c-5,0 -10,5 -10,10c0,6 5,10 10,10c6,0 10,-4 10,-10zm50,-24c0,-11 -19,-15 -25,-6c-3,5 1,10 9,10c9,0 16,-2 16,-4zm-75,-36c3,-5 1,-10 -4,-10c-6,0 -11,5 -11,10c0,6 2,10 4,10c3,0 8,-4 11,-10zm45,-21c0,-11 -4,-17 -10,-14c-5,3 -10,13 -10,21c0,8 5,14 10,14c6,0 10,-9 10,-21zm-330,1c0,-5 -4,-10 -10,-10c-5,0 -10,5 -10,10c0,6 5,10 10,10c6,0 10,-4 10,-10zm90,-4c0,-3 -4,-8 -10,-11c-5,-3 -10,-1 -10,4c0,6 5,11 10,11c6,0 10,-2 10,-4zm378,-191c-3,-3 -9,2 -12,12c-6,14 -5,15 5,6c7,-7 10,-15 7,-18z"/>
   <path id="svg_3" d="m995,1259c-4,-6 -5,-12 -2,-15c2,-3 7,2 10,11c7,17 1,20 -8,4z"/>
   <path id="svg_4" d="m801,1194c0,-11 3,-14 6,-6c3,7 2,16 -1,19c-3,4 -6,-2 -5,-13z"/>
   <path id="svg_5" d="m840,1020c0,-11 2,-20 4,-20c2,0 6,9 9,20c3,11 1,20 -4,20c-5,0 -9,-9 -9,-20z"/>
   <path id="svg_6" d="m971,874c0,-11 3,-14 6,-6c3,7 2,16 -1,19c-3,4 -6,-2 -5,-13z"/>
   <path id="svg_7" d="m1184,1255c-9,-21 -2,-26 13,-10c8,9 9,16 3,20c-6,3 -13,-1 -16,-10z"/>
   <path id="svg_8" d="m1261,1134c-12,-20 -20,-38 -18,-40c2,-2 14,14 26,36c28,50 21,53 -8,4z"/>
   <path id="svg_9" d="m1119,185c0,-3 0,-41 0,-85c0,-44 0,-84 0,-90c1,-7 155,-10 441,-10l440,0l0,95l0,95l-440,0c-242,0 -440,-3 -441,-5zm592,-52c19,-23 12,-54 -19,-79l-26,-21l-28,20c-30,22 -38,63 -16,85c18,18 73,15 89,-5zm54,-20c0,-19 5,-27 14,-25c7,1 19,-3 27,-9c11,-9 14,-8 14,2c0,12 2,12 9,0c5,-8 11,-9 15,-3c9,15 -4,20 -41,17c-34,-2 -37,2 -27,29c8,21 24,20 25,-1c1,-17 2,-17 6,0c6,22 43,23 43,0c0,-15 1,-15 13,-1c8,10 26,16 51,15l39,-2l0,-45l0,-45l-106,-1l-105,-1l-4,48c-2,39 0,49 12,49c11,0 16,-9 15,-27zm-575,0c1,-17 1,-17 14,0c18,23 26,22 26,-5c0,-19 2,-20 10,-8c5,8 20,15 32,16c13,1 31,5 41,9c13,5 17,2 17,-11c0,-14 3,-15 8,-6c5,7 16,10 25,6c18,-7 20,-14 11,-38c-7,-18 -34,-22 -34,-5c0,8 -4,8 -13,1c-13,-11 -117,-9 -136,2c-6,4 -11,2 -11,-5c0,-10 -3,-10 -11,-2c-13,13 -4,63 11,63c6,0 10,-8 10,-17zm310,3c0,-6 4,-6 8,2c5,7 16,10 25,6c21,-8 32,-43 18,-57c-8,-8 -11,-4 -12,14c-1,15 -3,18 -6,7c-6,-22 -34,-32 -45,-16c-4,7 -8,8 -8,3c0,-6 -9,-11 -20,-11c-11,0 -20,3 -20,7c0,4 -8,6 -17,5c-12,-1 -19,7 -20,24c-1,14 0,19 3,12c5,-10 9,-10 20,-1c11,9 14,8 14,-2c0,-10 4,-10 15,2c18,18 45,21 45,5z"/>
   <path id="svg_10" d="m1635,100c-4,-6 -3,-16 3,-22c15,-15 56,-5 60,15c3,16 1,17 -16,8c-13,-7 -22,-7 -29,0c-8,8 -13,7 -18,-1z"/>
   <path id="svg_11" d="m1860,90c0,-5 7,-10 16,-10c8,0 12,5 9,10c-3,6 -10,10 -16,10c-5,0 -9,-4 -9,-10z"/>
   <path id="svg_12" d="m1909,87c7,-7 14,-8 21,-1c6,6 2,10 -12,11c-16,2 -18,-1 -9,-10z"/>
  </g>
 </g>
</svg>